# xmcd
#
# Track frame offsets:
#	150
#	13511
#	34341
#	51829
#	69569
#	96297
#	120723
#	137025
#	158285
#	181465
#	200190
#	226461
#	243590
#	267476
#	284905
#	304002
#
# Disc length: 4275 seconds
#
# Revision: 1
# Processed by: cddbd v1.5.2PL0 Copyright (c) Steve Scherf et al.
# Submitted via: audiograbber 1.83.01
#
DISCID=f010b110
DTITLE=Los Torpedos - Oyster And Wine
DYEAR=2008
DGENRE=Blues
TTITLE0=A Whiter Shade Of Pale
TTITLE1=Ay No Digas
TTITLE2=Blues When It Rains
TTITLE3=California Here I Come
TTITLE4=Careless Love
TTITLE5=Delilah
TTITLE6=Glade For Your Sake
TTITLE7=I Ain´t Gonna Marry
TTITLE8=Intensification Waltz
TTITLE9=Lost Torpedos Blues
TTITLE10=Nach Em Räge Schint Sunne
TTITLE11=Oysters And Wine
TTITLE12=Call Me Back, Pal Of Mine
TTITLE13=Pink Elephants
TTITLE14=Slave Man
TTITLE15=Oh What A Kiss
EXTD=
EXTT0=
EXTT1=
EXTT2=
EXTT3=
EXTT4=
EXTT5=
EXTT6=
EXTT7=
EXTT8=
EXTT9=
EXTT10=
EXTT11=
EXTT12=
EXTT13=
EXTT14=
EXTT15=
PLAYORDER=
